<svg width="777" height="1867" viewBox="0 0 777 1867" version="1.1" xmlns="http://www.w3.org/2000/svg" xmlns:xlink="http://www.w3.org/1999/xlink">
<title>Group</title>
<desc>Created using Figma</desc>
<g id="Canvas" transform="translate(3664 6449)">
<g id="Group">
<g id="Vector">
<use xlink:href="#path0_fill" transform="translate(-3369.4 -6449)" fill="#848484" fill-opacity="0.9"/>
</g>
<g id="Vector 7">
<use xlink:href="#path1_fill" transform="translate(-3290.01 -5056.65)"/>
<use xlink:href="#path2_stroke" transform="translate(-3290.01 -5056.65)"/>
</g>
<g id="Vector 8">
<use xlink:href="#path3_fill" transform="translate(-3000.15 -5156.15)" fill="#219653"/>
<use xlink:href="#path4_stroke" transform="translate(-3000.15 -5156.15)"/>
</g>
<g id="Vector 8">
<use xlink:href="#path5_fill" transform="translate(-3466.69 -5505.42)" fill="#101010"/>
<use xlink:href="#path6_fill" transform="translate(-3466.69 -5505.42)" fill="#101010"/>
<use xlink:href="#path7_fill" transform="translate(-3466.69 -5505.42)" fill="#101010"/>
<use xlink:href="#path8_stroke" transform="translate(-3466.69 -5505.42)"/>
</g>
<g id="Vector 9">
<use xlink:href="#path9_fill" transform="translate(-3085.53 -6399.93)"/>
<use xlink:href="#path10_stroke" transform="translate(-3085.53 -6399.93)"/>
</g>
<g id="Vector 10">
<use xlink:href="#path11_fill" transform="translate(-3350.36 -6135.15)"/>
<use xlink:href="#path12_stroke" transform="translate(-3350.36 -6135.15)"/>
</g>
<g id="Vector 12">
<use xlink:href="#path13_fill" transform="translate(-3540.02 -5188.15)" fill="#219653"/>
<use xlink:href="#path14_stroke" transform="translate(-3540.02 -5188.15)"/>
</g>
<g id="Vector 13">
<use xlink:href="#path15_fill" transform="translate(-3659 -6145.15)" fill="#219653"/>
<use xlink:href="#path16_fill" transform="translate(-3659 -6145.15)" fill="#219653"/>
<use xlink:href="#path17_fill" transform="translate(-3659 -6145.15)" fill="#219653"/>
<use xlink:href="#path18_stroke" transform="translate(-3659 -6145.15)"/>
</g>
<g id="Vector 11">
<use xlink:href="#path19_fill" transform="translate(-3461 -5228)" fill="#101010"/>
<use xlink:href="#path20_stroke" transform="translate(-3461 -5228)"/>
</g>
</g>
</g>
<defs>
<path id="path0_fill" d="M 274.397 32.8528C 260.397 47.3525 140.302 216.289 65.3967 452.853C -4.68203 674.172 -9.98844 945.808 10.3969 1147.85C 38.3953 1425.35 195.73 1757.02 228.897 1805.85C 244.564 1835.52 293.297 1887.25 362.897 1856.85C 432.497 1826.45 384.089 1776.35 362.897 1723.35C 319.997 1616.06 251.462 1459.85 200.897 1264.35C 163.91 1121.35 149.143 957.425 154.897 869.853C 182.397 451.353 358.397 144.353 362.897 130.853C 367.397 117.353 399.897 36.853 362.897 9.85297C 325.897 -17.147 288.397 18.353 274.397 32.8528Z"/>
<path id="path1_fill" d="M 119.507 364C -23.4932 390 -18.9929 242.333 34.0071 166.5L 63.5071 191.495C 63.5071 191.495 48.507 304.5 135.507 252.5C 175.639 228.513 224.323 135.428 277.007 82.5C 338.535 20.6878 401.507 0 401.507 0C 375.007 44.5 314.084 60.5895 288.007 119.5C 235.007 212 206.49 348.185 119.507 364Z"/>
<path id="path2_stroke" d="M 34.0071 166.5L 34.3303 166.119L 33.9116 165.764L 33.5972 166.214L 34.0071 166.5ZM 119.507 364L 119.597 364.492L 119.507 364ZM 401.507 0L 401.937 0.255827L 402.62 -0.891975L 401.351 -0.475023L 401.507 0ZM 135.507 252.5L 135.764 252.929L 135.507 252.5ZM 63.5071 191.495L 64.0027 191.561L 64.0387 191.29L 63.8303 191.114L 63.5071 191.495ZM 277.007 82.5L 276.653 82.1473L 277.007 82.5ZM 288.007 119.5L 288.441 119.749L 288.454 119.726L 288.464 119.702L 288.007 119.5ZM 33.5972 166.214C 7.03333 204.222 -7.39365 260.24 2.7702 303.552C 7.85597 325.224 19.108 343.744 38.1082 355.202C 57.1034 366.656 83.7688 371.006 119.597 364.492L 119.418 363.508C 83.7453 369.994 57.3481 365.636 38.6245 354.345C 19.9059 343.058 8.78296 324.797 3.74376 303.323C -6.34234 260.343 7.98079 204.612 34.4169 166.786L 33.5972 166.214ZM 135.25 252.071C 113.543 265.046 98.3243 267.647 87.6989 264.427C 77.0956 261.213 70.8963 252.146 67.3572 241.342C 63.8104 230.527 62.9756 218.106 63.0227 208.342C 63.0459 203.465 63.291 199.272 63.5309 196.289C 63.6506 194.8 63.7686 193.618 63.8569 192.806C 63.901 192.4 63.9375 192.089 63.9631 191.878C 63.9758 191.773 63.9857 191.693 63.9926 191.64C 63.9959 191.613 63.9985 191.593 64.0002 191.58C 64.0011 191.573 64.0017 191.569 64.0022 191.565C 64.0024 191.564 64.0025 191.563 64.0026 191.562C 64.0027 191.561 64.0027 191.561 63.5071 191.495C 63.0114 191.429 63.0114 191.43 63.0112 191.431C 63.0111 191.432 63.0109 191.433 63.0107 191.435C 63.0102 191.439 63.0095 191.444 63.0086 191.451C 63.0068 191.465 63.004 191.486 63.0005 191.514C 62.9936 191.568 62.9833 191.65 62.9703 191.757C 62.9445 191.971 62.9073 192.288 62.8628 192.697C 62.7739 193.515 62.6546 194.71 62.5341 196.209C 62.2934 199.203 62.0464 203.433 62.0227 208.337C 61.9761 218.137 62.8287 230.717 66.4069 241.653C 69.9927 252.6 76.356 262.034 87.4089 265.384C 98.4398 268.727 113.971 265.954 135.764 252.929L 135.25 252.071ZM 63.8303 191.114L 34.3303 166.119L 33.6838 166.881L 63.1839 191.877L 63.8303 191.114ZM 401.507 0C 401.351 -0.475023 401.351 -0.474898 401.35 -0.474695C 401.35 -0.474522 401.349 -0.474239 401.348 -0.473892C 401.346 -0.473229 401.342 -0.472188 401.338 -0.470859C 401.331 -0.468262 401.319 -0.464269 401.303 -0.459056C 401.272 -0.448751 401.225 -0.433065 401.164 -0.412296C 401.042 -0.371009 400.859 -0.308366 400.62 -0.224527C 400.142 -0.0573662 399.431 0.196751 398.507 0.541128C 396.661 1.22878 393.951 2.28234 390.511 3.73783C 383.639 6.64628 373.822 11.1749 362.089 17.6324C 338.637 30.5411 307.454 51.2072 276.653 82.1473L 277.362 82.8527C 308.088 51.9807 339.155 31.3967 362.571 18.5085C 374.272 12.0675 384.043 7.56089 390.901 4.65875C 394.327 3.20894 397.017 2.16336 398.856 1.47819C 399.774 1.13615 400.475 0.885442 400.95 0.719377C 401.187 0.636603 401.365 0.575533 401.485 0.534761C 401.545 0.514501 401.589 0.499571 401.62 0.489516C 401.634 0.48455 401.645 0.480928 401.653 0.478455C 401.656 0.477248 401.659 0.476391 401.661 0.475789C 401.662 0.475503 401.662 0.475311 401.663 0.475169C 401.663 0.475056 401.663 0.475023 401.507 0ZM 276.653 82.1473C 250.281 108.644 224.915 145.178 201.145 178.06C 189.26 194.501 177.778 210.023 166.758 222.936C 155.736 235.853 145.212 246.117 135.25 252.071L 135.764 252.929C 145.868 246.89 156.479 236.523 167.519 223.586C 178.561 210.645 190.067 195.091 201.955 178.646C 225.731 145.756 251.049 109.284 277.362 82.8527L 276.653 82.1473ZM 119.597 364.492C 163.343 356.538 192.315 318.328 216.945 270.737C 241.586 223.121 261.961 165.959 288.441 119.749L 287.573 119.251C 261.053 165.541 240.669 222.722 216.057 270.277C 191.433 317.857 162.654 355.647 119.418 363.508L 119.597 364.492ZM 288.464 119.702C 301.447 90.3425 323.112 71.6816 344.905 54.7408C 366.669 37.8225 388.626 22.6078 401.937 0.255827L 401.078 -0.255827C 387.888 21.8922 366.134 36.9722 344.292 53.9513C 322.479 70.9079 300.644 89.7469 287.55 119.298L 288.464 119.702Z"/>
<path id="path3_fill" d="M 30.1504 0C 10.6504 41.5 -19.2496 134.1 17.1504 172.5C 37.6504 142.833 68.9504 66.8 30.1504 0Z"/>
<path id="path4_stroke" d="M 30.1504 0L 32.3122 -1.25565L 29.9163 -5.38047L 27.8877 -1.06318L 30.1504 0ZM 17.1504 172.5L 15.336 174.22L 17.4556 176.456L 19.2071 173.921L 17.1504 172.5ZM 27.8877 -1.06318C 18.094 19.7854 5.63231 53.6403 0.220005 87.0131C -5.15438 120.224 -3.74779 154.088 15.336 174.22L 18.9648 170.78C 1.64858 152.512 -0.194819 120.876 5.15579 87.8119C 10.4685 54.9097 22.7068 21.7146 32.4131 1.06318L 27.8877 -1.06318ZM 19.2071 173.921C 29.5572 158.931 42.7266 132.019 48.3491 100.614C 53.9206 69.2632 51.9465 32.6867 32.3122 -1.25565L 27.9886 1.25565C 47.1543 34.1133 48.9302 68.9535 43.4267 99.7363C 37.9742 130.465 25.2436 156.402 15.0937 171.079L 19.2071 173.921Z"/>
<path id="path5_fill" d="M 397.686 409.776C 396.573 403.36 394.633 397.008 392.042 390.777C 375.094 350.007 330.318 314.444 307.186 300.276C 235.686 268.276 93.985 172.377 91.185 26.7767C 91.0912 21.9031 83.4807 18.8022 72.6855 18.585C 58.7803 18.3054 39.5911 22.8104 24.377 34.4747C 23.8234 34.8992 23.275 35.3331 22.7323 35.7767C 15.5294 41.6638 9.3326 49.2413 5.18507 58.7766C -4.50993 81.0659 0.185516 98.7767 12.6853 144.777C 12.6853 144.777 58.6853 235.277 125.685 318.277C 179.568 385.026 293.599 431.403 336.186 447.004L 352.686 494.277C 387.285 490.817 397.357 456.834 398.461 429.666C 398.761 422.283 398.399 415.403 397.686 409.776Z"/>
<path id="path6_fill" d="M 36.6855 0.2767C 31.7507 2.0798 33.9307 25.5787 24.377 34.4747C 39.5911 22.8104 58.7803 18.3054 72.6855 18.585C 72.6855 18.585 65.1855 9.7767 60.1855 9.7767C 55.1855 9.7767 53.6855 12.7767 48.6855 9.7767C 43.6855 6.77672 41.8855 -1.6233 36.6855 0.2767Z"/>
<path id="path7_fill" d="M 392.042 360.277C 405.186 344.277 332.853 311.11 307.186 300.276C 330.318 314.444 375.094 350.007 392.042 390.777C 392.042 390.777 380.686 353.777 379.686 351.277C 378.686 348.777 390.4 362.277 392.042 360.277Z"/>
<path id="path8_stroke" d="M 91.185 26.7767L 90.6851 26.7863L 91.185 26.7767ZM 12.6853 144.777L 12.2028 144.908L 12.2163 144.957L 12.2396 145.003L 12.6853 144.777ZM 125.685 318.277L 125.296 318.591L 125.685 318.277ZM 5.18507 58.7766L 4.72656 58.5772L 5.18507 58.7766ZM 352.686 494.277L 352.214 494.441L 352.344 494.813L 352.736 494.774L 352.686 494.277ZM 336.186 447.004L 336.658 446.839L 336.58 446.616L 336.358 446.535L 336.186 447.004ZM 36.6855 0.2767L 36.514 -0.192933L 36.514 -0.192933L 36.6855 0.2767ZM 72.6855 18.585L 72.6755 19.0849L 72.6855 18.585ZM 307.391 299.82C 271.667 283.833 218.447 251.91 173.782 205.779C 129.123 159.659 93.0816 99.3983 91.6849 26.7671L 90.6851 26.7863C 92.0883 99.7551 128.298 160.244 173.064 206.474C 217.825 252.693 271.205 284.72 306.982 300.733L 307.391 299.82ZM 12.6853 144.777C 12.2396 145.003 12.2398 145.004 12.2402 145.004C 12.2405 145.005 12.2411 145.006 12.2418 145.008C 12.2432 145.01 12.2454 145.015 12.2482 145.02C 12.2538 145.031 12.2623 145.048 12.2736 145.07C 12.296 145.114 12.3297 145.18 12.3744 145.267C 12.4636 145.441 12.5972 145.701 12.7742 146.043C 13.1277 146.727 13.6554 147.741 14.3503 149.06C 15.7396 151.698 17.8002 155.561 20.4812 160.454C 25.8421 170.238 33.6909 184.154 43.632 200.66C 63.5116 233.667 91.7808 277.071 125.296 318.591L 126.074 317.963C 92.5899 276.483 64.359 233.136 44.4886 200.144C 34.5548 183.65 26.7161 169.753 21.3582 159.974C 18.6798 155.086 16.6232 151.23 15.2351 148.594C 14.5414 147.277 14.0154 146.266 13.6624 145.584C 13.486 145.243 13.3532 144.984 13.2643 144.811C 13.2199 144.724 13.1866 144.659 13.1643 144.615C 13.1531 144.594 13.1448 144.577 13.1393 144.566C 13.1365 144.561 13.1344 144.557 13.1331 144.554C 13.1324 144.553 13.1319 144.552 13.1315 144.551C 13.1312 144.55 13.131 144.55 12.6853 144.777ZM 4.72656 58.5772C -5.05251 81.0598 -0.282444 98.9613 12.2028 144.908L 13.1678 144.646C 0.653477 98.5921 -3.96735 81.072 5.64357 58.9761L 4.72656 58.5772ZM 125.296 318.591C 152.289 352.02 194.346 380.361 234.934 402.261C 275.527 424.162 314.714 439.671 336.014 447.474L 336.358 446.535C 315.07 438.736 275.949 423.256 235.409 401.381C 194.864 379.505 152.964 351.283 126.074 317.963L 125.296 318.591ZM 353.158 494.112L 336.658 446.839L 335.713 447.169L 352.214 494.441L 353.158 494.112ZM 397.194 409.862C 398.61 418.015 398.766 424.445 397.967 429.59L 398.955 429.743C 399.764 424.509 399.605 417.917 398.179 409.691L 397.194 409.862ZM 397.961 429.646C 397.412 443.195 394.645 458.367 387.699 470.616C 380.785 482.822 369.749 492.068 352.637 493.779L 352.736 494.774C 370.222 493.026 381.522 483.55 388.569 471.108C 395.585 458.708 398.406 443.305 398.961 429.686L 397.961 429.646ZM 397.19 409.839C 397.901 415.448 398.261 422.286 397.961 429.646L 398.961 429.686C 399.261 422.28 398.897 415.359 398.182 409.714L 397.19 409.839ZM 22.4158 35.3896C 15.1759 41.3102 8.90579 48.9808 4.72656 58.5772L 5.64357 58.9761C 9.75941 49.5017 15.8829 42.0174 23.0487 36.1638L 22.4158 35.3896ZM 36.8571 0.746332C 38.0119 0.324398 38.945 0.474199 39.8004 0.97018C 40.6881 1.48495 41.5069 2.38207 42.3646 3.49449C 43.2175 4.60037 44.0771 5.87685 45.0435 7.07375C 46.0109 8.27029 47.1244 9.41809 48.4283 10.2054L 48.9428 9.34795C 47.7467 8.63532 46.7602 7.60812 45.8213 6.44529C 44.8815 5.28283 44.0286 4.01555 43.1565 2.88393C 42.2892 1.75885 41.3705 0.724708 40.302 0.105102C 39.2011 -0.533296 37.9592 -0.720998 36.514 -0.192933L 36.8571 0.746332ZM 48.4283 10.2054C 49.7205 10.9781 50.8431 11.3861 51.8133 11.5366C 52.8014 11.6829 53.708 11.5819 54.548 11.3889C 56.2224 10.9998 57.7928 10.2651 60.1855 10.2767L 60.1855 9.2767C 57.5783 9.28834 55.8987 10.0536 54.3231 10.4145C 53.538 10.5965 52.8197 10.683 51.9641 10.548C 51.0905 10.4172 50.1506 10.0753 48.9428 9.34795L 48.4283 10.2054ZM 91.6849 26.7671C 91.6322 24.03 89.4692 21.9127 86.1468 20.4758C 82.8021 19.0292 78.1297 18.1944 72.6956 18.0851L 72.6755 19.0849C 78.0365 19.1928 82.567 20.0171 85.7498 21.3936C 88.9549 22.7798 90.644 24.6498 90.6851 26.7863L 91.6849 26.7671ZM 60.1855 10.2767C 61.3028 10.2767 62.6159 10.7744 63.9949 11.5842C 65.373 12.3921 66.7411 13.4644 67.9801 14.5561C 69.2178 15.6459 70.2953 16.731 71.0723 17.5524C 71.4595 17.9615 71.767 18.3002 71.9804 18.5394C 72.0864 18.6583 72.1674 18.7506 72.2229 18.8144C 72.2504 18.8459 72.2709 18.8696 72.2849 18.8859C 72.2918 18.8939 72.2968 18.8997 72.3002 18.9038C 72.3019 18.9058 72.3031 18.9071 72.3039 18.9081C 72.3043 18.9085 72.3045 18.9088 72.3047 18.909C 72.3048 18.9091 72.3048 18.9092 72.3049 18.9092C 72.3049 18.9092 72.3049 18.9092 72.6855 18.585C 73.0662 18.2609 73.0662 18.2608 73.066 18.2607C 73.066 18.2606 73.0658 18.2604 73.0657 18.2603C 73.0654 18.2599 73.065 18.2594 73.0645 18.2588C 73.0635 18.2577 73.0619 18.2558 73.0599 18.2535C 73.0562 18.2491 73.0503 18.2423 73.0429 18.2336C 73.0282 18.2166 73.0059 18.1908 72.9772 18.1579C 72.9205 18.0926 72.8354 17.9957 72.7266 17.8737C 72.5103 17.6312 72.1929 17.2817 71.7988 16.8651C 71.0133 16.0349 69.9033 14.9179 68.641 13.8057C 67.38 12.6952 65.9356 11.5654 64.5012 10.7218C 63.0677 9.88005 61.5683 9.2767 60.1855 9.2767L 60.1855 10.2767ZM 36.514 -0.192933C 35.7242 0.0956375 35.1421 0.791962 34.6877 1.66894C 34.239 2.53865 33.8625 3.69506 33.5384 5.01033C 32.8943 7.62982 32.4027 11.0309 31.7709 14.6294C 30.4994 21.8725 28.6707 29.7934 24.0363 34.1088L 24.7178 34.8406C 29.637 30.26 31.4952 21.9835 32.7558 14.8023C 33.3901 11.1888 33.8759 7.821 34.5095 5.24933C 34.8243 3.969 35.1617 2.92424 35.5756 2.12898C 35.9839 1.34098 36.4132 0.908538 36.8571 0.746332L 36.514 -0.192933ZM 24.6812 34.8715C 39.7925 23.286 58.8664 18.8072 72.6755 19.0849L 72.6956 18.0851C 58.6941 17.8035 39.3897 22.3348 24.0728 34.0779L 24.6812 34.8715ZM 24.0728 34.0779C 23.5161 34.5047 22.9616 34.9435 22.4158 35.3896L 23.0487 36.1638C 23.5883 35.7228 24.1306 35.2936 24.6812 34.8715L 24.0728 34.0779ZM 23.009 36.1932C 23.6107 35.7928 24.19 35.3315 24.7178 34.8406L 24.0363 34.1088C 23.5373 34.5739 23.022 34.9845 22.4556 35.3602L 23.009 36.1932ZM 306.992 300.737C 319.82 306.151 344.289 317.137 363.913 328.769C 373.722 334.583 382.28 340.527 387.578 346.022C 390.223 348.764 392.009 351.348 392.745 353.699C 393.472 356.018 393.179 358.106 391.656 359.959L 392.429 360.594C 394.192 358.448 394.514 355.999 393.7 353.4C 392.896 350.832 390.986 348.115 388.298 345.328C 382.928 339.766 374.263 333.741 364.423 327.909C 344.75 316.249 320.219 305.235 307.381 299.816L 306.992 300.737ZM 391.656 359.959C 391.656 359.959 391.652 359.975 391.589 359.979C 391.51 359.984 391.374 359.966 391.17 359.892C 390.738 359.737 390.21 359.418 389.57 358.957C 388.278 358.028 386.715 356.627 385.214 355.224C 383.714 353.822 382.289 352.427 381.297 351.537C 380.816 351.105 380.391 350.749 380.104 350.59C 380.031 350.55 379.929 350.5 379.813 350.478C 379.706 350.458 379.439 350.441 379.252 350.675C 379.098 350.866 379.122 351.086 379.134 351.162C 379.148 351.245 379.182 351.364 379.221 351.462L 380.15 351.091C 380.126 351.033 380.122 351.002 380.123 351.015C 380.124 351.02 380.128 351.049 380.122 351.093C 380.116 351.138 380.097 351.22 380.031 351.301C 379.875 351.496 379.662 351.467 379.628 351.461C 379.587 351.453 379.579 351.442 379.62 351.465C 379.789 351.559 380.128 351.831 380.629 352.282C 381.605 353.157 383.023 354.544 384.531 355.954C 386.04 357.364 387.651 358.807 388.986 359.768C 389.66 360.253 390.308 360.64 390.828 360.832C 391.327 361.013 392 361.116 392.429 360.594L 391.656 359.959ZM 398.179 409.691C 397.059 403.244 395.103 396.838 392.504 390.585L 391.581 390.969C 394.162 397.177 396.086 403.476 397.194 409.862L 398.179 409.691ZM 392.504 390.585C 375.495 349.667 330.606 314.035 307.448 299.85L 306.925 300.703C 330.029 314.854 374.694 350.347 391.581 390.969L 392.504 390.585ZM 379.221 351.462C 379.711 352.688 382.791 362.53 385.761 372.112C 387.243 376.893 388.694 381.596 389.774 385.104C 390.315 386.857 390.762 388.312 391.075 389.329C 391.231 389.837 391.353 390.236 391.437 390.507C 391.478 390.643 391.51 390.747 391.532 390.817C 391.543 390.852 391.551 390.879 391.556 390.897C 391.559 390.905 391.561 390.912 391.562 390.917C 391.563 390.919 391.564 390.921 391.564 390.922C 391.564 390.922 391.564 390.923 391.564 390.923C 391.564 390.923 391.564 390.923 392.042 390.777C 392.52 390.63 392.52 390.63 392.52 390.63C 392.52 390.629 392.52 390.629 392.52 390.628C 392.52 390.627 392.519 390.625 392.518 390.623C 392.517 390.619 392.515 390.612 392.512 390.603C 392.507 390.585 392.499 390.559 392.488 390.524C 392.466 390.454 392.434 390.35 392.393 390.214C 392.309 389.942 392.187 389.543 392.03 389.035C 391.718 388.018 391.27 386.563 390.73 384.809C 389.65 381.301 388.199 376.598 386.717 371.816C 383.758 362.273 380.66 352.366 380.15 351.091L 379.221 351.462Z"/>
<path id="path9_fill" d="M 15.5308 183.279C -7.66924 157.679 -1.46865 38.4787 12.0313 4.77869C 24.827 -27.1634 13.3662 110.152 55.1379 146.279C 57.4368 148.267 62.4884 154.027 60.5309 160.279C 58.5733 166.531 38.7308 208.879 15.5308 183.279Z"/>
<path id="path10_stroke" d="M 12.0313 4.77869L 12.4954 4.96462L 12.0313 4.77869ZM 55.1379 146.279L 54.8108 146.657L 55.1379 146.279ZM 11.5671 4.59276C 4.78032 21.5347 -0.143716 59.8395 -0.481438 97.0616C -0.650154 115.683 0.33062 134.079 2.80443 149.407C 5.27552 164.713 9.2533 177.096 15.1603 183.614L 15.9013 182.943C 10.2082 176.661 6.26107 164.544 3.79165 149.247C 1.32494 133.972 0.349603 115.661 0.518521 97.0707C 0.856069 59.8678 5.78228 21.7227 12.4954 4.96462L 11.5671 4.59276ZM 15.1603 183.614C 21.0332 190.095 26.7671 192.348 32.1194 191.862C 37.4415 191.379 42.2619 188.197 46.3516 184.075C 54.5273 175.836 60.012 163.609 61.008 160.428L 60.0537 160.129C 59.0921 163.2 53.6767 175.273 45.6418 183.371C 41.6262 187.418 37.0136 190.414 32.029 190.866C 27.0747 191.316 21.6283 189.262 15.9013 182.943L 15.1603 183.614ZM 61.008 160.428C 62.0403 157.131 61.2154 153.986 59.8726 151.446C 58.5311 148.918 56.6327 146.911 55.465 145.9L 54.8108 146.657C 55.942 147.634 57.7188 149.501 58.9885 151.913C 60.2569 154.313 60.979 157.174 60.0537 160.129L 61.008 160.428ZM 55.465 145.9C 45.1356 136.967 38.0528 121.729 33.0601 104.299C 28.0685 86.8763 25.1922 67.3641 23.2154 49.9464C 21.2386 32.5312 20.1652 17.2225 18.7849 8.25606C 18.4388 6.00914 18.0685 4.13766 17.6613 2.73989C 17.4555 2.03544 17.2297 1.42187 16.9963 0.949007C 16.76 0.47198 16.485 0.0699907 16.15 -0.189288C 15.7923 -0.466107 15.367 -0.576005 14.9154 -0.445322C 14.4997 -0.325054 14.1259 -0.0188721 13.7842 0.383162C 13.0988 1.18938 12.3693 2.59014 11.5671 4.59276L 12.4954 4.96462C 13.2926 2.97449 13.9731 1.70481 14.5461 1.03085C 14.8334 0.692804 15.0509 0.556469 15.1933 0.51528C 15.2996 0.484507 15.3993 0.494213 15.538 0.601551C 15.6993 0.726431 15.8923 0.973153 16.1002 1.39289C 16.311 1.81678 16.5056 2.34802 16.7013 3.01992C 17.0971 4.37484 17.4538 6.18221 17.7965 8.40826C 19.1714 17.3337 20.2428 32.6226 22.2218 50.0592C 24.2006 67.4934 27.0911 87.0874 32.0988 104.574C 37.1054 122.053 44.2544 137.527 54.8108 146.657L 55.465 145.9Z"/>
<path id="path11_fill" d="M 96.3625 0C 24.8625 35 -70.1376 172.5 78.8639 329C 78.8639 329 133.741 374.542 149.862 415C 149.468 419 146.363 433.5 146.363 450.5C 139.363 513.5 134.863 589 134.863 589C 264.863 498 190.862 313 190.862 313C 78.8639 110 69.8625 78.5 96.3625 0Z"/>
<path id="path12_stroke" d="M 96.3625 0L 96.8362 0.159923L 97.2198 -0.976359L 96.1427 -0.449082L 96.3625 0ZM 78.8639 329L 78.5018 329.345L 78.522 329.366L 78.5446 329.385L 78.8639 329ZM 190.862 313L 191.327 312.814L 191.315 312.786L 191.3 312.758L 190.862 313ZM 134.863 589L 134.363 588.97L 134.302 590.003L 135.149 589.41L 134.863 589ZM 149.862 415L 150.36 415.049L 150.372 414.928L 150.327 414.815L 149.862 415ZM 146.363 450.5L 146.86 450.555L 146.86 450.549L 146.363 450.5ZM 96.1427 -0.449082C 60.2666 17.1127 18.5383 60.355 4.43909 118.82C -9.66942 177.324 3.90397 250.993 78.5018 329.345L 79.226 328.655C 4.82232 250.507 -8.60497 177.176 5.41122 119.055C 19.4367 60.895 60.9585 17.8873 96.5823 0.449082L 96.1427 -0.449082ZM 95.8888 -0.159923C 82.627 39.1303 78.239 66.7835 91.1966 109.956C 104.153 153.081 134.434 211.757 190.425 313.242L 191.3 312.758C 135.293 211.243 105.073 152.669 92.1544 109.669C 79.2367 66.7165 83.598 39.3697 96.8362 0.159923L 95.8888 -0.159923ZM 190.862 313C 190.398 313.186 190.398 313.186 190.399 313.187C 190.399 313.189 190.4 313.191 190.401 313.193C 190.403 313.199 190.407 313.207 190.411 313.218C 190.42 313.24 190.433 313.273 190.45 313.317C 190.485 313.406 190.537 313.538 190.604 313.713C 190.74 314.065 190.938 314.587 191.193 315.274C 191.702 316.649 192.431 318.674 193.314 321.287C 195.082 326.518 197.46 334.084 199.91 343.455C 204.813 362.206 209.991 388.121 211.113 416.895C 213.359 474.433 199.38 543.228 134.576 588.59L 135.149 589.41C 200.345 543.772 214.366 474.567 212.112 416.855C 210.984 388.004 205.787 361.982 200.877 343.202C 198.421 333.807 196.033 326.208 194.262 320.967C 193.375 318.344 192.642 316.306 192.131 314.926C 191.875 314.235 191.674 313.707 191.537 313.354C 191.469 313.176 191.416 313.041 191.381 312.952C 191.363 312.906 191.35 312.872 191.341 312.849C 191.336 312.838 191.333 312.829 191.33 312.823C 191.329 312.821 191.328 312.818 191.328 312.817C 191.327 312.815 191.327 312.814 190.862 313ZM 150.327 414.815C 142.228 394.491 124.42 372.932 108.679 356.483C 100.803 348.252 93.4268 341.283 88.0265 336.378C 85.325 333.924 83.1138 331.983 81.5804 330.658C 80.813 329.994 80.2136 329.484 79.8071 329.14C 79.6035 328.967 79.4475 328.836 79.3429 328.749C 79.2904 328.705 79.2505 328.671 79.2239 328.649C 79.2106 328.638 79.2004 328.63 79.1936 328.624C 79.1902 328.621 79.1876 328.619 79.1859 328.617C 79.1851 328.617 79.1844 328.616 79.1839 328.616C 79.1835 328.615 79.1832 328.615 78.8639 329C 78.5446 329.385 78.5447 329.385 78.5451 329.385C 78.5455 329.386 78.5461 329.386 78.5469 329.387C 78.5485 329.388 78.5509 329.39 78.5541 329.393C 78.5607 329.398 78.5705 329.406 78.5835 329.417C 78.6098 329.439 78.6488 329.472 78.7007 329.515C 78.8047 329.602 78.9588 329.732 79.1611 329.903C 79.5664 330.246 80.1617 330.753 80.9264 331.414C 82.457 332.737 84.659 334.67 87.3542 337.118C 92.7472 342.017 100.098 348.962 107.956 357.174C 123.684 373.61 141.375 395.052 149.398 415.185L 150.327 414.815ZM 134.863 589C 135.362 589.03 135.362 589.029 135.362 589.029C 135.362 589.028 135.362 589.027 135.362 589.026C 135.362 589.024 135.362 589.021 135.362 589.016C 135.363 589.007 135.364 588.993 135.365 588.975C 135.367 588.938 135.37 588.884 135.375 588.812C 135.383 588.667 135.397 588.451 135.414 588.167C 135.449 587.599 135.5 586.758 135.569 585.664C 135.705 583.477 135.908 580.282 136.174 576.252C 136.705 568.19 137.486 556.786 138.486 543.412C 140.486 516.664 143.36 482.048 146.859 450.555L 145.866 450.445C 142.365 481.952 139.489 516.586 137.489 543.338C 136.489 556.714 135.707 568.123 135.176 576.186C 134.91 580.218 134.707 583.414 134.571 585.602C 134.502 586.696 134.45 587.538 134.416 588.106C 134.398 588.391 134.385 588.607 134.377 588.751C 134.372 588.824 134.369 588.879 134.367 588.915C 134.366 588.933 134.365 588.947 134.364 588.956C 134.364 588.961 134.364 588.964 134.364 588.967C 134.364 588.968 134.364 588.969 134.363 588.969C 134.363 588.97 134.363 588.97 134.863 589ZM 146.863 450.5C 146.863 433.525 149.957 419.133 150.36 415.049L 149.365 414.951C 148.979 418.867 145.863 433.475 145.863 450.5L 146.863 450.5ZM 149.365 414.951L 145.865 450.451L 146.86 450.549L 150.36 415.049L 149.365 414.951Z"/>
<path id="path13_fill" d="M 0.522626 142.5C 88.1226 106.9 89.5227 31 84.5227 1L 83.5227 0C 20.3227 22 -3.97739 113 0.522626 142.5Z"/>
<path id="path14_stroke" d="M 84.5227 1L 86.9887 0.589003L 86.857 -0.201259L 86.2905 -0.767767L 84.5227 1ZM 0.522626 142.5L -1.94879 142.877L -1.47105 146.009L 1.46385 144.816L 0.522626 142.5ZM 83.5227 0L 85.2905 -1.76777L 84.1817 -2.87654L 82.7008 -2.36104L 83.5227 0ZM 82.0567 1.411C 84.5351 16.2485 85.4588 42.0516 74.9208 68.7359C 64.4922 95.2834 42.7372 122.646 -0.4186 140.184L 1.46385 144.816C 45.908 126.754 68.653 98.3666 79.5746 70.5641C 90.3866 42.8984 89.5103 15.7515 86.9887 0.589003L 82.0567 1.411ZM 2.99404 142.123C 0.845926 128.041 5.60279 98.4327 18.9068 69.4814C 32.1868 40.5823 53.6635 13.0412 84.3446 2.36104L 82.7008 -2.36104C 50.1819 8.95882 27.9086 37.9177 14.3635 67.3936C 0.842483 96.8173 -4.30069 127.459 -1.94879 142.877L 2.99404 142.123ZM 81.7549 1.76777L 82.7549 2.76777L 86.2905 -0.767767L 85.2905 -1.76777L 81.7549 1.76777Z"/>
<path id="path15_fill" d="M 0 641.5C 25.1667 677.333 100.3 744.8 199.5 728C 170.833 694.5 90.8 630.3 0 641.5Z"/>
<path id="path16_fill" d="M 203 0C 206.333 37.3333 236.2 117.2 329 138C 325.333 102.333 295 24.8 203 0Z"/>
<path id="path17_fill" d="M 690 58C 615.667 79.3333 458.4 152 424 272C 493 275.333 642.8 237.2 690 58Z"/>
<path id="path18_stroke" d="M 0 641.5L -0.306051 639.019L -4.4395 639.529L -2.04584 642.937L 0 641.5ZM 199.5 728L 199.917 730.465L 204.269 729.728L 201.399 726.375L 199.5 728ZM 203 0L 203.651 -2.41384L 200.191 -3.34637L 200.51 0.22233L 203 0ZM 329 138L 328.453 140.439L 331.842 141.199L 331.487 137.744L 329 138ZM 690 58L 692.418 58.6368L 693.538 54.3838L 689.31 55.597L 690 58ZM 424 272L 421.597 271.311L 420.727 274.345L 423.879 274.497L 424 272ZM -2.04584 642.937C 23.3897 679.153 99.3596 747.495 199.917 730.465L 199.083 725.535C 101.24 742.105 26.9436 675.514 2.04584 640.063L -2.04584 642.937ZM 201.399 726.375C 186.956 709.504 159.431 684.781 124.236 665.787C 89.0764 646.845 45.6223 633.41 -0.306051 639.019L 0.306051 643.981C 45.1777 638.39 87.1402 651.455 121.864 670.188C 156.553 688.869 183.378 712.996 197.601 729.625L 201.399 726.375ZM 200.51 0.22233C 203.901 38.2063 234.222 119.319 328.453 140.439L 329.547 135.561C 238.178 115.081 208.765 36.4604 205.49 -0.22233L 200.51 0.22233ZM 331.487 137.744C 327.748 101.376 296.936 22.7326 203.651 -2.41384L 202.349 2.41384C 293.064 26.8674 322.919 103.29 326.513 138.256L 331.487 137.744ZM 689.31 55.597C 652.017 66.3036 593.756 89.9613 540.623 125.93C 487.508 161.904 439.032 210.492 421.597 271.311L 426.403 272.689C 443.368 213.508 490.726 165.763 543.427 130.07C 596.111 94.372 653.649 71.0297 690.69 60.403L 689.31 55.597ZM 423.879 274.497C 493.664 277.868 644.827 239.321 692.418 58.6368L 687.582 57.3632C 640.773 235.079 492.336 272.798 424.121 269.503L 423.879 274.497Z"/>
<path id="path19_fill" d="M 87.5017 0C 87.5017 0 -15.4983 42.5 2.00172 41.5C 5.51083 41.2995 12.7191 41.5614 22.002 42.1083C 59.0129 44.2887 129.002 51 129.002 51L 87.5017 0Z"/>
<path id="path20_stroke" d="M 87.5017 0L 87.8896 -0.315582L 87.6548 -0.604058L 87.311 -0.4622L 87.5017 0ZM 2.00172 41.5L 1.9732 41.0008L 2.00172 41.5ZM 129.002 51L 128.954 51.4977L 130.144 51.6118L 129.39 50.6844L 129.002 51ZM 22.002 42.1083L 21.9725 42.6074L 22.002 42.1083ZM 87.5017 0C 87.311 -0.4622 87.3106 -0.462033 87.3098 -0.461704C 87.309 -0.461379 87.3078 -0.460889 87.3063 -0.46024C 87.3031 -0.458945 87.2984 -0.457 87.2922 -0.45442C 87.2797 -0.449266 87.261 -0.441547 87.2362 -0.431321C 87.1868 -0.410884 87.1129 -0.380372 87.0157 -0.340153C 86.8213 -0.259742 86.533 -0.140394 86.1578 0.0151817C 85.4075 0.326277 84.3091 0.782524 82.9177 1.36273C 80.1351 2.52304 76.1789 4.17978 71.4866 6.1645C 62.1028 10.1337 49.7703 15.4168 37.9857 20.6683C 26.2009 25.9199 14.9504 31.1463 7.7427 34.9965C 4.1558 36.9126 1.50752 38.5197 0.309823 39.6385C 0.0101662 39.9184 -0.238086 40.2029 -0.376246 40.4855C -0.519824 40.7792 -0.584352 41.1742 -0.311057 41.5128C -0.0853853 41.7924 0.283573 41.9073 0.628082 41.9626C 0.979396 42.0179 1.46258 42.0312 2.03025 41.9992L 1.9732 41.0008C 1.44712 41.0313 1.0719 41.0222 0.78653 40.9753C 0.530068 40.9382 0.449167 40.8398 0.467093 40.8847C 0.533479 40.9669 0.470111 41.0311 0.52212 40.9248C 0.579547 40.8073 0.72131 40.6226 0.992453 40.3693C 2.07796 39.3553 4.60546 37.8061 8.21388 35.8785C 15.3968 32.0412 26.6151 26.8301 38.3927 21.5817C 50.1707 16.3332 62.4944 11.0538 71.8762 7.0855C 76.5668 5.10147 80.5207 3.44571 83.3026 2.2857C 84.6934 1.70576 85.7908 1.24989 86.5408 0.93892C 86.9157 0.78346 87.2036 0.664283 87.3979 0.583927C 87.495 0.543763 87.5686 0.513332 87.618 0.492921C 87.6427 0.482722 87.6613 0.475042 87.6738 0.469902C 87.68 0.467335 87.6847 0.465409 87.6878 0.464121C 87.6893 0.463478 87.6905 0.462998 87.6913 0.462676C 87.6921 0.462357 87.6924 0.4622 87.5017 0ZM 129.39 50.6844L 87.8896 -0.315582L 87.1139 0.315582L 128.614 51.3156L 129.39 50.6844ZM 2.03025 41.9992C 5.51602 41.7995 12.6953 42.0608 21.9725 42.6074L 22.0314 41.6091C 12.7429 41.0619 5.50564 40.7995 1.9732 41.0008L 2.03025 41.9992ZM 21.9725 42.6074C 40.472 43.6972 67.2147 45.9196 89.337 47.8699C 100.398 48.845 110.302 49.7519 117.441 50.4152C 121.011 50.7467 123.889 51.0174 125.875 51.2051C 126.868 51.299 127.638 51.3722 128.159 51.4218C 128.42 51.4467 128.619 51.4657 128.752 51.4784C 128.819 51.4848 128.869 51.4896 128.903 51.4929C 128.92 51.4945 128.933 51.4957 128.941 51.4965C 128.945 51.4969 128.949 51.4972 128.951 51.4974C 128.952 51.4975 128.953 51.4976 128.953 51.4976C 128.954 51.4977 128.954 51.4977 129.002 51C 129.049 50.5023 129.049 50.5023 129.049 50.5022C 129.048 50.5022 129.047 50.5021 129.046 50.502C 129.044 50.5018 129.041 50.5015 129.037 50.5011C 129.028 50.5002 129.015 50.499 128.998 50.4974C 128.965 50.4942 128.914 50.4893 128.847 50.4829C 128.714 50.4702 128.515 50.4512 128.254 50.4263C 127.732 50.3767 126.962 50.3035 125.969 50.2096C 123.983 50.0218 121.104 49.7511 117.534 49.4194C 110.394 48.7562 100.487 47.849 89.4248 46.8737C 67.3 44.9233 40.5428 42.6998 22.0314 41.6091L 21.9725 42.6074Z"/>
</defs>
</svg>
