<svg width="987" height="1942" viewBox="0 0 987 1942" version="1.1" xmlns="http://www.w3.org/2000/svg" xmlns:xlink="http://www.w3.org/1999/xlink">
<title>Group</title>
<desc>Created using Figma</desc>
<g id="Canvas" transform="translate(-948 6472)">
<g id="Group">
<g id="Vector">
<use xlink:href="#path0_fill" transform="translate(1293 -6422)" fill="#8D8D8D"/>
</g>
<g id="Vector">
<use xlink:href="#path1_fill" transform="translate(951 -6467)" fill="#27AE60"/>
<use xlink:href="#path2_fill" transform="translate(951 -6467)" fill="#27AE60"/>
<use xlink:href="#path3_stroke" transform="translate(951 -6467)"/>
</g>
<g id="Vector 6">
<use xlink:href="#path4_fill" transform="translate(1751.5 -5913.5)" fill="#219653"/>
<use xlink:href="#path5_stroke" transform="translate(1751.5 -5913.5)"/>
</g>
<g id="Vector 2">
<use xlink:href="#path6_fill" transform="translate(1048 -6350.5)"/>
<use xlink:href="#path7_fill" transform="translate(1048 -6350.5)"/>
</g>
<g id="Vector 4">
<use xlink:href="#path8_fill" transform="translate(1472.38 -5976.5)"/>
<use xlink:href="#path9_stroke" transform="translate(1472.38 -5976.5)"/>
</g>
<g id="Vector 3">
<use xlink:href="#path10_fill" transform="translate(1419.31 -5383.47)"/>
<use xlink:href="#path11_stroke" transform="translate(1419.31 -5383.47)"/>
</g>
<g id="Vector 5">
<use xlink:href="#path12_fill" transform="translate(1458 -5259)" fill="#27AE60"/>
<use xlink:href="#path13_stroke" transform="translate(1458 -5259)"/>
</g>
<g id="Vector 6">
<use xlink:href="#path14_fill" transform="translate(1789.5 -5311.41)" fill="#219653"/>
<use xlink:href="#path15_stroke" transform="translate(1789.5 -5311.41)"/>
</g>
<g id="Vector 6">
<use xlink:href="#path16_fill" transform="translate(1750 -5932)" fill="#219653"/>
<use xlink:href="#path17_stroke" transform="translate(1750 -5932)"/>
</g>
</g>
</g>
<defs>
<path id="path0_fill" d="M 240.173 1798C 265.277 1772 442.673 1624 434.673 1341C 434.673 1009 435.673 878.004 384.173 664.004C 322.74 408.727 238.673 209.504 211.173 128.004C 194.173 91.004 172.173 40.0039 119.173 7.00399C 54.6997 -33.1395 -11.4256 109.948 1.67313 165.504C 30.6731 288.504 62.1731 327.504 137.173 525.504C 189.494 663.633 228.383 822.54 240.173 909.504C 298.673 1341 126.173 1616.5 107.173 1655C 88.1731 1693.5 100.173 1757 137.173 1784C 174.173 1811 215.069 1824 240.173 1798Z"/>
<path id="path1_fill" d="M 142.5 0C 131.167 30.5 121 100.8 171 138C 183.167 115.833 194.5 57.2 142.5 0Z"/>
<path id="path2_fill" d="M 0 86C 0 130.5 43.5 148.5 107 160C 93.5 122 54 112.5 0 86Z"/>
<path id="path3_stroke" d="M 142.5 0L 144.35 -1.68168L 141.587 -4.72069L 140.157 -0.870788L 142.5 0ZM 171 138L 169.508 140.006L 171.811 141.719L 173.192 139.203L 171 138ZM 0 86L 1.10138 83.7557L -2.5 81.9883L -2.5 86L 0 86ZM 107 160L 106.554 162.46L 110.8 163.229L 109.356 159.163L 107 160ZM 140.157 -0.870788C 134.433 14.552 128.963 40.2971 131.26 66.7067C 133.593 93.2134 143.766 120.854 169.508 140.006L 172.492 135.994C 148.234 117.946 138.491 91.8366 136.24 66.2683C 133.954 40.6029 139.234 15.948 144.843 0.870788L 140.157 -0.870788ZM 173.192 139.203C 185.81 116.213 197.151 56.3997 144.35 -1.68168L 140.65 1.68168C 191.849 58.0003 180.523 115.453 168.808 136.797L 173.192 139.203ZM -2.5 86C -2.5 109.292 8.98721 125.651 28.3836 137.508C 47.6159 149.265 74.7577 156.702 106.554 162.46L 107.446 157.54C 75.7423 151.798 49.3841 144.485 30.9914 133.242C 12.7628 122.099 2.5 107.208 2.5 86L -2.5 86ZM 109.356 159.163C 102.327 139.379 88.5117 127.109 69.9255 116.516C 51.4461 105.991 28.0008 96.9591 1.10138 83.7557L -1.10138 88.2443C 25.9992 101.541 49.3039 110.509 67.4495 120.859C 85.4883 131.141 98.173 142.621 104.644 160.837L 109.356 159.163Z"/>
<path id="path4_fill" d="M 0 175.5C 9.49786 109 37 17 64 0C 74.6667 24.1667 76.8 93.1 0 175.5Z"/>
<path id="path5_stroke" d="M 0 175.5L -2.47488 175.147L -3.60086 183.03L 1.82882 177.205L 0 175.5ZM 64 0L 66.2871 -1.00949L 65.118 -3.65821L 62.668 -2.11558L 64 0ZM 2.47488 175.853C 7.206 142.711 16.4019 103.315 27.8021 69.9966C 33.4948 53.3509 39.6792 38.3704 46.1437 26.432C 52.6286 14.4489 59.1567 6.00377 65.332 2.11558L 62.668 -2.11558C 55.3433 2.49623 48.3086 11.9261 41.7463 24.0523C 35.1636 36.2233 28.8164 51.5866 23.0713 68.3784C 11.5959 101.935 2.29187 141.789 -2.47488 175.147L 2.47488 175.853ZM 61.7129 1.00949C 71.8538 23.9851 74.5219 91.8775 -1.82882 173.795L 1.82882 177.205C 79.0781 94.3225 77.4795 24.3482 66.2871 -1.00949L 61.7129 1.00949Z"/>
<path id="path6_fill" d="M 312.5 287.5C 200 222.5 146.5 172 141.5 161C 136.5 150 143.5 153.5 141.5 145.5C 139.5 137.5 98 83.001 98 69.0005C 98 55 108.221 5.62464 108.5 2.50061C 108.779 -0.623702 99.5 36.5 91 41.0005C 82.5 45.501 86 0 86 0L 70 18.5C 70 18.5 81.5 62 76 66.0005C 70.5 70.0009 0 21.5005 0 21.5005L 1 45.5C 1 45.5 67 99.5 73.5 106.5C 80 113.501 101.5 141.5 108.5 154.5C 115.5 167.501 106.542 170.501 119.5 186C 132.458 201.5 307.5 384.676 324 397.5C 340.5 410.325 363 413 363 413L 312.5 287.5Z"/>
<path id="path7_fill" d="M 576.5 1638C 581.147 1658.28 589.135 1693.9 592.5 1726.5C 595.5 1766.5 590.943 1787.94 594 1804.5C 600.2 1838.1 621 1783 624.5 1770C 628 1757 623.5 1725 625.5 1724.5C 627.5 1724 653.642 1748.99 678.5 1772C 691.532 1784.06 702.761 1797.94 710.5 1800C 733 1806 753.5 1828.5 756 1816C 758.5 1803.5 755.5 1793 751 1789.5C 748.472 1787.53 721.394 1765.63 699 1744C 681.532 1727.12 667.691 1709.63 665.5 1707C 660.5 1701 609.5 1595.2 625.5 1554L 576.5 1638Z"/>
<path id="path8_fill" d="M 46.1237 406C 20.1237 413 -8.97632 418.1 2.62368 491C 6.14725 513.144 5.12427 527 10.1243 546.5C 18.1243 566.5 31.1243 570.5 68.1243 565C 105.124 559.5 226.319 461.5 254.124 385.5C 281.929 309.5 287.858 246.388 272.124 184.5C 249.124 71.5 183.624 0 140.624 0L 151.624 35L 192.624 190C 192.624 190 208.124 230 184.624 328C 161.124 426 96.1243 439.5 61.6243 450.5C 60.1243 450.5 59.6243 451 58.1243 450C 52.6243 435.374 52.1243 420 48.6243 405.824C 47.8974 405.694 47.069 405.745 46.1237 406Z"/>
<path id="path9_stroke" d="M 46.1237 406L 45.9937 405.517L 46.1237 406ZM 2.62368 491L 2.12989 491.078L 2.62368 491ZM 140.624 0L 140.624 -0.5L 139.943 -0.5L 140.147 0.149913L 140.624 0ZM 272.124 184.5L 271.634 184.6L 271.637 184.612L 271.64 184.623L 272.124 184.5ZM 192.624 190L 192.141 190.128L 192.148 190.155L 192.158 190.181L 192.624 190ZM 61.6243 450.5L 61.6243 451L 61.702 451L 61.7762 450.976L 61.6243 450.5ZM 151.624 35L 152.108 34.8721L 152.105 34.861L 152.101 34.8501L 151.624 35ZM 58.1243 450L 57.6563 450.176L 57.7129 450.327L 57.8469 450.416L 58.1243 450ZM 48.6243 405.824L 49.1097 405.704L 49.0318 405.389L 48.7122 405.332L 48.6243 405.824ZM 10.1243 546.5L 9.63994 546.624L 9.64799 546.656L 9.66003 546.686L 10.1243 546.5ZM 45.9937 405.517C 33.047 409.003 19.0828 412.058 9.88435 423.474C 0.67244 434.906 -3.6764 454.589 2.12989 491.078L 3.11747 490.921C -2.67624 454.511 1.72492 435.194 10.663 424.101C 19.6146 412.992 33.2004 409.997 46.2537 406.483L 45.9937 405.517ZM 68.1978 565.495C 77.5669 564.102 92.1603 556.887 109.16 545.738C 126.176 534.579 145.694 519.414 164.908 502.059C 203.321 467.358 240.648 423.79 254.594 385.672L 253.655 385.328C 239.796 423.21 202.622 466.642 164.237 501.316C 145.051 518.648 125.595 533.765 108.612 544.902C 91.6126 556.05 77.1817 563.148 68.0508 564.505L 68.1978 565.495ZM 254.594 385.672C 282.417 309.61 288.357 246.349 272.609 184.377L 271.64 184.623C 287.36 246.427 281.442 309.39 253.655 385.328L 254.594 385.672ZM 272.614 184.4C 261.098 127.841 238.925 81.613 214.271 49.5701C 189.621 17.5382 162.366 -0.5 140.624 -0.5L 140.624 0.5C 161.882 0.5 188.878 18.2118 213.478 50.1799C 238.073 82.137 260.15 128.159 271.634 184.6L 272.614 184.4ZM 192.624 190C 192.158 190.181 192.158 190.181 192.158 190.181C 192.158 190.181 192.158 190.181 192.158 190.181C 192.159 190.182 192.159 190.184 192.16 190.186C 192.162 190.19 192.164 190.196 192.167 190.205C 192.174 190.224 192.184 190.251 192.198 190.289C 192.226 190.366 192.267 190.479 192.319 190.634C 192.426 190.948 192.578 191.415 192.765 192.051C 193.141 193.33 193.649 195.255 194.189 197.882C 195.273 203.15 196.47 211.172 196.937 222.271C 197.874 244.496 195.88 278.927 184.138 327.883L 185.111 328.117C 196.869 279.073 198.874 244.504 197.936 222.229C 197.466 211.078 196.257 202.975 195.169 197.681C 194.623 195.026 194.104 193.061 193.724 191.769C 193.533 191.12 193.375 190.632 193.266 190.312C 193.211 190.15 193.167 190.027 193.138 189.947C 193.123 189.906 193.111 189.874 193.104 189.854C 193.1 189.843 193.096 189.834 193.094 189.829C 193.093 189.826 193.092 189.824 193.092 189.822C 193.091 189.822 193.091 189.821 193.091 189.82C 193.091 189.82 193.091 189.819 192.624 190ZM 184.138 327.883C 172.414 376.775 150.353 404.545 126.956 421.47C 103.539 438.421 78.7385 444.519 61.4724 450.024L 61.7762 450.976C 79.0101 445.481 103.959 439.329 127.542 422.28C 151.146 405.205 173.335 377.225 185.111 328.117L 184.138 327.883ZM 140.147 0.149913L 151.147 35.1499L 152.101 34.8501L 141.101 -0.149913L 140.147 0.149913ZM 151.141 35.1279L 192.141 190.128L 193.108 189.872L 152.108 34.8721L 151.141 35.1279ZM 61.6243 450C 60.8132 450.004 60.3132 450.129 59.8743 450.125C 59.4914 450.125 59.0863 450.04 58.4016 449.584L 57.8469 450.416C 58.6622 450.96 59.2571 451.125 59.8743 451.125C 60.4354 451.121 60.9354 450.996 61.6243 451L 61.6243 450ZM 61.695 450.005L 58.195 449.505L 58.0536 450.495L 61.5536 450.995L 61.695 450.005ZM 58.5923 449.824C 55.855 442.55 54.366 435.097 53.1174 427.661C 51.8686 420.225 50.8654 412.819 49.1097 405.704L 48.1388 405.944C 49.8831 413.006 50.8799 420.375 52.1312 427.826C 53.3825 435.277 54.8935 442.825 57.6563 450.176L 58.5923 449.824ZM 48.7122 405.332C 47.9262 405.195 46.9882 405.252 45.9937 405.517L 46.2537 406.483C 47.1497 406.239 47.8686 406.194 48.5364 406.316L 48.7122 405.332ZM 2.12989 491.078C 5.6477 513.165 4.62623 527.044 9.63994 546.624L 10.6086 546.376C 5.6223 526.956 6.64681 513.123 3.11747 490.921L 2.12989 491.078ZM 9.66003 546.686C 13.6961 556.776 19.037 562.918 28.0982 565.789C 37.0941 568.64 49.6979 568.245 68.1978 565.495L 68.0508 564.505C 49.5507 567.255 37.1545 567.61 28.4003 564.836C 19.7115 562.082 14.5524 556.224 10.5885 546.314L 9.66003 546.686Z"/>
<path id="path10_fill" d="M 306.687 13.4654C 321.021 2.79873 357.787 -13.8347 368.187 20.9653C 381.187 64.4653 391.187 159.465 368.187 238.465C 345.187 317.465 156.386 510.965 33.1868 510.965C 19.687 510.965 4.39685 486.044 2.68704 470.465C -1.81287 429.465 -5.81298 376.965 36.1873 374.965C 78.1876 372.965 68.6873 399.465 200.687 253.465C 321.5 119.839 305.239 33.9654 306.687 15.4654C 306.687 13.9654 306.687 13.4654 306.687 13.4654Z"/>
<path id="path11_stroke" d="M 306.687 13.4654L 306.389 13.0643L 306.187 13.2142L 306.187 13.4654L 306.687 13.4654ZM 368.187 20.9653L 367.708 21.1085L 368.187 20.9653ZM 2.68704 470.465L 2.19003 470.52L 2.68704 470.465ZM 200.687 253.465L 201.058 253.801L 200.687 253.465ZM 306.687 15.4654L 307.186 15.5044L 307.187 15.4849L 307.187 15.4654L 306.687 15.4654ZM 306.986 13.8665C 314.112 8.56334 326.8 1.79326 338.958 0.66321C 345.042 0.0943718 350.902 0.914772 355.943 4.03771C 360.951 7.12806 365.135 12.4999 367.708 21.1085L 368.666 20.8221C 366.038 12.0307 361.727 6.43175 356.468 3.1867C 351.242 -0.0257633 345.065 -0.905345 338.866 -0.332498C 326.457 0.820821 313.596 7.70078 306.389 13.0643L 306.986 13.8665ZM 367.708 21.1085C 380.686 64.5361 390.674 159.436 367.707 238.326L 368.667 238.605C 391.699 159.495 381.687 64.3945 368.666 20.8221L 367.708 21.1085ZM 367.707 238.326C 361.984 257.981 345.921 284.826 323.071 314.064C 300.225 343.296 270.65 374.857 237.929 403.967C 205.208 433.077 169.385 459.701 134.031 479.058C 98.6798 498.415 63.8664 510.465 33.1868 510.465L 33.1868 511.465C 64.1066 511.465 99.093 499.328 134.511 479.935C 169.925 460.542 205.839 433.853 238.594 404.714C 271.348 375.573 300.985 343.947 323.859 314.679C 346.728 285.417 362.889 258.449 368.667 238.605L 367.707 238.326ZM 33.1868 510.465C 29.9641 510.465 26.5828 508.975 23.271 506.431C 19.9477 503.881 16.7692 500.335 13.9253 496.271C 8.23521 488.141 4.02738 478.095 3.18406 470.411L 2.19003 470.52C 3.05651 478.415 7.34869 488.618 13.1061 496.844C 15.9859 500.957 19.268 504.615 22.6619 507.224C 26.0672 509.84 29.6596 511.465 33.1868 511.465L 33.1868 510.465ZM 3.18406 470.411C 0.932657 449.898 -1.18 426.6 2.48995 408.188C 4.32361 398.989 7.59243 391.057 12.9665 385.307C 18.3285 379.569 25.8256 375.959 36.2111 375.465L 36.1635 374.466C 25.5488 374.971 17.7958 378.674 12.2359 384.624C 6.68805 390.561 3.3631 398.692 1.50924 407.993C -2.19584 426.581 -0.0584864 450.033 2.19003 470.52L 3.18406 470.411ZM 36.2111 375.465C 46.6557 374.964 53.9279 376.245 61.0523 376.168C 68.2229 376.089 75.186 374.625 84.9487 368.642C 104.399 356.72 135.076 326.78 201.058 253.801L 200.316 253.13C 134.298 326.15 103.726 355.96 84.4261 367.789C 74.8138 373.68 68.0269 375.091 61.0413 375.168C 54.0094 375.248 46.719 373.966 36.1635 374.466L 36.2111 375.465ZM 201.058 253.801C 261.509 186.938 287.69 131.996 298.931 91.4265C 310.164 50.8842 306.47 24.6418 307.186 15.5044L 306.189 15.4264C 305.456 24.789 309.168 50.7334 297.967 91.1595C 286.773 131.558 260.678 186.366 200.316 253.13L 201.058 253.801ZM 307.187 15.4654C 307.187 14.7154 307.187 14.2154 307.187 13.9029C 307.187 13.7466 307.187 13.6373 307.187 13.567C 307.187 13.5318 307.187 13.5064 307.187 13.4898C 307.187 13.4815 307.187 13.4754 307.187 13.4714C 307.187 13.4694 307.187 13.4679 307.187 13.4669C 307.187 13.4664 307.187 13.466 307.187 13.4658C 307.187 13.4656 307.187 13.4655 307.187 13.4655C 307.187 13.4655 307.187 13.4654 307.187 13.4654C 307.187 13.4654 307.187 13.4654 307.187 13.4654C 307.187 13.4654 307.187 13.4654 306.687 13.4654C 306.187 13.4654 306.187 13.4654 306.187 13.4654C 306.187 13.4654 306.187 13.4654 306.187 13.4654C 306.187 13.4654 306.187 13.4655 306.187 13.4655C 306.187 13.4655 306.187 13.4656 306.187 13.4658C 306.187 13.466 306.187 13.4664 306.187 13.4669C 306.187 13.4679 306.187 13.4694 306.187 13.4714C 306.187 13.4754 306.187 13.4815 306.187 13.4898C 306.187 13.5064 306.187 13.5318 306.187 13.567C 306.187 13.6373 306.187 13.7466 306.187 13.9029C 306.187 14.2154 306.187 14.7154 306.187 15.4654L 307.187 15.4654ZM 306.187 13.4654L 306.187 15.4654L 307.187 15.4654L 307.187 13.4654L 306.187 13.4654Z"/>
<path id="path12_fill" d="M 0 0C 2.16667 62 30.6 187.3 127 192.5C 128.667 141.5 105.6 31.6 0 0Z"/>
<path id="path13_stroke" d="M 0 0L 0.716705 -2.39506L -2.62012 -3.39358L -2.49847 0.0873123L 0 0ZM 127 192.5L 126.865 194.996L 129.415 195.134L 129.499 192.582L 127 192.5ZM -2.49847 0.0873123C -1.40456 31.2457 6.35129 78.5839 25.9167 118.648C 45.5478 158.786 77.3881 192.327 126.865 194.996L 127.135 190.004C 80.2119 187.473 49.6356 155.764 30.4083 116.452C 11.1154 77.0661 3.57123 30.7543 2.49847 -0.0873123L -2.49847 0.0873123ZM 129.499 192.582C 130.33 166.876 124.874 126.045 105.964 87.8637C 86.9669 49.5817 54.3149 13.6438 0.716705 -2.39506L -0.716705 2.39506C 51.2851 17.9562 82.9664 52.7683 101.486 90.0863C 120.092 127.505 125.336 167.124 124.501 192.418L 129.499 192.582Z"/>
<path id="path14_fill" d="M 0 45.9056C 25.8333 21.9056 90.2 -18.8944 141 9.9056C 110 37.9056 38.4 84.3056 0 45.9056Z"/>
<path id="path15_stroke" d="M 0 45.9056L -1.70158 44.074L -3.60176 45.8394L -1.76777 47.6734L 0 45.9056ZM 141 9.9056L 142.676 11.7609L 145.246 9.4391L 142.233 7.73079L 141 9.9056ZM 1.70158 47.7372C 14.4999 35.8404 36.6441 19.9109 62.0132 10.4472C 87.3306 0.979396 115.27 -1.8074 139.767 12.0804L 142.233 7.73079C 115.93 -7.18139 86.2861 -3.96819 60.2618 5.76399C 34.2892 15.5003 11.3334 31.9708 -1.70158 44.074L 1.70158 47.7372ZM 139.324 8.05035C 123.926 21.9632 98.6546 40.31 72.3715 50.4746C 46.0597 60.6726 19.876 62.2461 1.76777 44.1378L -1.76777 47.6734C 18.524 67.9651 47.3404 65.5386 74.1785 55.1367C 101.045 44.7013 127.074 25.848 142.676 11.7609L 139.324 8.05035Z"/>
<path id="path16_fill" d="M 0 197.5C 60.1667 169.5 180.5 90.8 180.5 0C 122 0 20.4 122.3 0 197.5Z"/>
<path id="path17_stroke" d="M 0 197.5L -2.4128 196.845L -3.82074 202.036L 1.05481 199.767L 0 197.5ZM 180.5 0L 183 0L 183 -2.5L 180.5 -2.5L 180.5 0ZM 1.05481 199.767C 31.2482 185.712 76.6979 158.833 114.503 124.142C 152.252 89.4837 183 46.481 183 0L 178 0C 178 44.319 148.581 86.0664 111.122 120.458C 73.7187 154.817 28.9184 181.288 -1.05481 195.233L 1.05481 199.767ZM 180.5 -2.5C 165.098 -2.5 147.257 5.50196 129.053 18.2358C 110.84 30.9837 91.7996 48.8215 74.0877 68.8962C 38.6951 109.019 7.92706 158.73 -2.4128 196.845L 2.4128 198.155C 12.4729 161.07 42.7049 112.031 77.8373 72.2038C 95.3879 52.3035 113.991 34.8663 131.919 22.3329C 149.856 9.78554 166.652 2.5 180.5 2.5L 180.5 -2.5Z"/>
</defs>
</svg>
